<svg xmlns="http://www.w3.org/2000/svg" viewBox="0 0 32 32"><path d="M32 24.795c-1.164.296-1.884.013-2.53-.957l-4.594-6.356-.664-.88-5.365 7.257c-.613.873-1.256 1.253-2.4.944l6.87-9.222-6.396-8.33c1.1-.214 1.86-.105 2.535.88l4.765 6.435 4.8-6.4c.615-.873 1.276-1.205 2.38-.883l-2.48 3.288-3.36 4.375c-.4.5-.345.842.023 1.325L32 24.795zM.008 15.427l.975-5.873C2.086 5.636 5.4 1.85 9.394 1.85h4.222a13.6 13.6 0 0 0-.976 1.85H9.394c-2.82 0-5.223 2.763-6.05 6.42L2.48 15.427c-.73 3.658.97 6.42 3.8 6.42h5.76c.345.534.708 1.2 1.073 1.85H6.278c-3.995 0-7.308-3.786-6.27-8.27z" fill="#000000"/></svg>